<svg width="76" height="76" viewBox="0 0 76 76" fill="none" xmlns="http://www.w3.org/2000/svg">
<path d="M13.3976 58.1925C13.4716 58.5047 13.6081 58.7987 13.7987 59.0568C13.9893 59.3149 14.2302 59.5318 14.5068 59.6944C14.7834 59.857 15.09 59.9619 15.4083 60.0029C15.7265 60.0439 16.0497 60.0201 16.3585 59.9329C30.5162 56.0239 45.4684 56.0225 59.6268 59.9288C59.9355 60.0159 60.2586 60.0397 60.5767 59.9987C60.8948 59.9577 61.2014 59.8528 61.4779 59.6903C61.7544 59.5278 61.9952 59.3111 62.1858 59.0531C62.3765 58.7952 62.5129 58.5013 62.5871 58.1893L70.154 26.0327C70.2553 25.6022 70.2344 25.152 70.0937 24.7328C69.9529 24.3135 69.6979 23.9419 69.3573 23.6598C69.0168 23.3776 68.6042 23.1962 68.1661 23.1359C67.728 23.0756 67.2817 23.1388 66.8776 23.3184L51.8606 29.9926C51.3183 30.2336 50.7055 30.2629 50.1427 30.0747C49.5799 29.8865 49.108 29.4945 48.8199 28.9757L40.0762 13.2371C39.8705 12.8669 39.5695 12.5584 39.2045 12.3436C38.8394 12.1288 38.4236 12.0155 38 12.0155C37.5765 12.0155 37.1607 12.1288 36.7956 12.3436C36.4306 12.5584 36.1296 12.8669 35.9239 13.2371L27.1803 28.9757C26.8921 29.4945 26.4202 29.8865 25.8574 30.0747C25.2946 30.2629 24.6818 30.2336 24.1396 29.9926L9.12022 23.3174C8.71617 23.1378 8.27001 23.0746 7.83198 23.1348C7.39394 23.1951 6.98143 23.3764 6.64087 23.6584C6.30032 23.9404 6.04525 24.3119 5.90439 24.731C5.76352 25.1502 5.74246 25.6003 5.84356 26.0307L13.3976 58.1925Z" stroke="black" stroke-width="2" stroke-linecap="round" stroke-linejoin="round"/>
<path d="M28.5 47.9984C34.8159 47.3339 41.1841 47.3339 47.5 47.9984" stroke="black" stroke-width="2" stroke-linecap="round" stroke-linejoin="round"/>
</svg>
